<?xml version="1.0" encoding="UTF-8" standalone="no"?>
<!-- Svg Vector Icons : http://www.onlinewebfonts.com/icon -->

<svg
   version="1.1"
   x="0px"
   y="0px"
   viewBox="0 0 1000 1000"
   enable-background="new 0 0 1000 1000"
   xml:space="preserve"
   id="svg17"
   sodipodi:docname="hibernate.svg"
   inkscape:version="1.3.1 (9b9bdc1480, 2023-11-25, custom)"
   xmlns:inkscape="http://www.inkscape.org/namespaces/inkscape"
   xmlns:sodipodi="http://sodipodi.sourceforge.net/DTD/sodipodi-0.dtd"
   xmlns="http://www.w3.org/2000/svg"
   xmlns:svg="http://www.w3.org/2000/svg"><defs
   id="defs17" /><sodipodi:namedview
   id="namedview17"
   pagecolor="#505050"
   bordercolor="#ffffff"
   borderopacity="1"
   inkscape:showpageshadow="0"
   inkscape:pageopacity="0"
   inkscape:pagecheckerboard="1"
   inkscape:deskcolor="#505050"
   inkscape:zoom="0.31006632"
   inkscape:cx="-422.49026"
   inkscape:cy="548.2698"
   inkscape:window-width="1900"
   inkscape:window-height="1001"
   inkscape:window-x="0"
   inkscape:window-y="0"
   inkscape:window-maximized="1"
   inkscape:current-layer="svg17" />
<metadata
   id="metadata1"> Svg Vector Icons : http://www.onlinewebfonts.com/icon </metadata>

<path
   d="M 500,10 C 229.4,10 10,229.4 10,500 10,770.6 229.4,990 500,990 770.6,990 990,770.6 990,500 990,229.4 770.6,10 500,10 Z m 0,875.1 C 287.3,885.1 114.9,712.7 114.9,500 114.9,287.3 287.3,114.9 500,114.9 c 212.7,0 385.1,172.4 385.1,385.1 0,212.7 -172.4,385.1 -385.1,385.1 z m 52.5,-576.4 v 382.4 c 0,42.2 -10.2,76.5 -52.5,76.5 -42.3,0 -52.5,-34.2 -52.5,-76.5 V 308.7 c 0,-42.2 10.2,-76.5 52.5,-76.5 42.2,0.1 52.5,34.3 52.5,76.5 z"
   id="path1"
   sodipodi:nodetypes="ssssssssssssssscs" /></svg>
