<?xml version="1.0" encoding="UTF-8" standalone="no"?>
<!-- Svg Vector Icons : http://www.onlinewebfonts.com/icon -->

<svg
   version="1.1"
   x="0px"
   y="0px"
   viewBox="0 0 1000 1000"
   enable-background="new 0 0 1000 1000"
   xml:space="preserve"
   id="svg2"
   sodipodi:docname="lock.svg"
   inkscape:version="1.3.1 (9b9bdc1480, 2023-11-25, custom)"
   xmlns:inkscape="http://www.inkscape.org/namespaces/inkscape"
   xmlns:sodipodi="http://sodipodi.sourceforge.net/DTD/sodipodi-0.dtd"
   xmlns="http://www.w3.org/2000/svg"
   xmlns:svg="http://www.w3.org/2000/svg"><defs
   id="defs2" /><sodipodi:namedview
   id="namedview2"
   pagecolor="#505050"
   bordercolor="#ffffff"
   borderopacity="1"
   inkscape:showpageshadow="0"
   inkscape:pageopacity="0"
   inkscape:pagecheckerboard="1"
   inkscape:deskcolor="#505050"
   inkscape:zoom="0.4385"
   inkscape:cx="278.22121"
   inkscape:cy="161.91562"
   inkscape:window-width="1900"
   inkscape:window-height="1001"
   inkscape:window-x="0"
   inkscape:window-y="0"
   inkscape:window-maximized="1"
   inkscape:current-layer="svg2" />
<metadata
   id="metadata1"> Svg Vector Icons : http://www.onlinewebfonts.com/icon </metadata>
<path
   id="path1-3"
   style="stroke-width:0.713795"
   inkscape:label="path1"
   d="M 500,10.005744 C 354.81237,9.1282851 200.34375,108.80392 200.34375,292.82215 v 160.65821 l -12.14453,0.002 h -22.29883 c -18.49998,0 -34.30079,6.50001 -47.30078,19.5 -12.99999,12.99999 -19.500001,28.7008 -19.500001,47.30078 v 400.89844 c 0,18.49998 6.500011,34.30079 19.500001,47.30078 12.99999,12.99999 28.7008,19.5 47.30078,19.5 h 363.3457 c 7.05802,1.21933 14.01564,2.02344 20.75391,2.02344 6.73851,0 13.39222,-0.80402 19.99609,-2.02344 h 264.10352 c 18.49998,0 34.30079,-6.50001 47.30078,-19.5 12.99999,-12.99999 19.5,-28.7008 19.5,-47.30078 V 520.28309 c 0,-18.59998 -6.50001,-34.4004 -19.5,-47.40039 -12.99999,-12.99999 -28.7008,-19.5 -47.30078,-19.5 l -34.44336,0.006 V 292.82215 C 799.65625,106.44727 660.65764,10.976696 500,10.005744 Z m 0,104.898446 c 101.12702,0 196.20898,53.4242 196.20898,177.91796 v 160.58204 l -392.41796,0.0605 V 292.82215 c 0,-117.40334 94.75456,-177.91796 196.20898,-177.91796 z" />
</svg>
