<?xml version="1.0" encoding="UTF-8" standalone="no"?>
<!-- Svg Vector Icons : http://www.onlinewebfonts.com/icon -->

<svg
   version="1.1"
   x="0px"
   y="0px"
   viewBox="0 0 1000 1000"
   enable-background="new 0 0 1000 1000"
   xml:space="preserve"
   id="svg3"
   sodipodi:docname="suspend.svg"
   inkscape:version="1.3.1 (9b9bdc1480, 2023-11-25, custom)"
   xmlns:inkscape="http://www.inkscape.org/namespaces/inkscape"
   xmlns:sodipodi="http://sodipodi.sourceforge.net/DTD/sodipodi-0.dtd"
   xmlns="http://www.w3.org/2000/svg"
   xmlns:svg="http://www.w3.org/2000/svg"><defs
   id="defs3" /><sodipodi:namedview
   id="namedview3"
   pagecolor="#505050"
   bordercolor="#ffffff"
   borderopacity="1"
   inkscape:showpageshadow="0"
   inkscape:pageopacity="0"
   inkscape:pagecheckerboard="1"
   inkscape:deskcolor="#505050"
   showgrid="false"
   inkscape:zoom="0.434"
   inkscape:cx="432.02765"
   inkscape:cy="714.28572"
   inkscape:window-width="1900"
   inkscape:window-height="1001"
   inkscape:window-x="0"
   inkscape:window-y="0"
   inkscape:window-maximized="1"
   inkscape:current-layer="svg3" />
<metadata
   id="metadata1"> Svg Vector Icons : http://www.onlinewebfonts.com/icon </metadata>

<path
   id="path1"
   style="display:inline"
   d="M 500 10 C 229.40027 10 10 229.40027 10 500 C 10 770.59973 229.40027 990 500 990 C 770.59973 990 990 770.59973 990 500 C 990 229.40027 770.59973 10 500 10 z M 500 114.90039 C 712.69979 114.90039 885.09961 287.30021 885.09961 500 C 885.09961 712.69979 712.69979 885.09961 500 885.09961 C 287.30021 885.09961 114.90039 712.69979 114.90039 500 C 114.90039 287.30021 287.30021 114.90039 500 114.90039 z M 374.86914 233.86719 C 332.56918 233.86719 322.36914 268.16723 322.36914 310.36719 L 322.36914 692.76758 C 322.36914 735.06754 332.56918 769.26758 374.86914 769.26758 C 417.1691 769.26758 427.36914 734.96754 427.36914 692.76758 L 427.36914 310.36719 C 427.36914 268.16723 417.0691 233.96719 374.86914 233.86719 z M 614.86914 233.86719 C 572.56918 233.86719 562.36914 268.16723 562.36914 310.36719 L 562.36914 692.76758 C 562.36914 735.06754 572.56918 769.26758 614.86914 769.26758 C 657.1691 769.26758 667.36914 734.96754 667.36914 692.76758 L 667.36914 310.36719 C 667.36914 268.16723 657.0691 233.96719 614.86914 233.86719 z " /></svg>
